<?xml version="1.0" encoding="UTF-8"?><svg id="Layer_1" xmlns="http://www.w3.org/2000/svg" viewBox="0 0 252.49 37.16"><defs><style>.cls-1{fill:#161616;}</style></defs><path class="cls-1" d="M41.47,34.54v2.04h-12.03v-2.04h3.4v-12.81c0-3.49-1.75-4.8-4.07-4.8-1.89,0-3.93,.73-5.92,2.28,.1,.58,.15,1.21,.15,1.89v13.44h3.4v2.04H15.04v-2.04h3.35v-12.81c0-3.54-1.7-4.85-3.73-4.85s-4.03,.87-6.02,2.52v15.13h3.4v2.04H0v-2.04H4.03V16.35H0v-2.04H8.63v2.91c3.15-2.38,5.72-3.3,8.15-3.3s4.56,1.02,5.53,3.35c2.77-2.04,5.48-3.35,8.34-3.35,4.07,0,6.79,2.23,6.79,7.57v13.05h4.03Z"/><path class="cls-1" d="M60.35,22.65v8.34c0,2.33,1.02,3.1,2.13,3.1,.68,0,1.31-.19,1.89-.63v1.75c-1.16,1.02-2.43,1.6-4.12,1.6-1.99,0-3.4-.87-4.12-2.81-2.47,2.28-4.17,2.86-6.02,2.86-3.1,0-5.48-2.43-5.48-5.58s2.33-5,6.98-5.77l4.22-.68v-2.23c0-3.69-1.31-5.58-4.08-5.58-2.13,0-4.07,1.07-5.87,2.91l-.49-1.7c2.09-2.72,5-4.17,7.81-4.17,4.27,0,7.13,2.43,7.13,8.59Zm-7.13,4.56c-2.86,.53-3.98,1.79-3.98,3.54,0,1.89,1.31,3.15,3.15,3.15,1.07,0,2.38-.58,3.44-1.7v-5.43l-2.62,.44Z"/><path class="cls-1" d="M73.64,14.31h7.18v2.04h-7.18v13.1c0,3.35,1.31,4.71,3.69,4.71,1.31,0,2.62-.63,4.03-1.99v2.18c-1.46,1.7-3.59,2.67-5.97,2.67-3.3,0-6.35-1.79-6.35-6.94v-13.73h-2.96v-.58l7.57-7.37v5.92Z"/><path class="cls-1" d="M93,17.08c3.44-2.28,5.87-3.15,8.44-3.15,3.69,0,6.74,2.09,6.74,7.57v13.05h3.98v2.04h-12.42v-2.04h3.83v-13c0-3.49-1.94-4.8-4.12-4.8s-4.17,.92-6.45,2.62v15.18h3.74v2.04h-12.32v-2.04h4.03V3.11h-4.07V1.07h8.63V17.08Z"/><path class="cls-1" d="M116.58,1.11c0-.32,.21-.53,.53-.53h6.35c.37,0,.69,.16,.9,.53l12.7,22.66h.26V1.11c0-.32,.21-.53,.53-.53h5.98c.32,0,.53,.21,.53,.53V36.05c0,.32-.21,.53-.53,.53h-6.3c-.42,0-.69-.16-.9-.53l-12.76-22.6h-.26v22.6c0,.32-.21,.53-.53,.53h-5.98c-.32,0-.53-.21-.53-.53V1.11Z"/><path class="cls-1" d="M151.24,1.11c0-.32,.21-.53,.53-.53h23.08c.32,0,.53,.21,.53,.53V6.78c0,.32-.21,.53-.53,.53h-15.51c-.21,0-.32,.11-.32,.32v7.15c0,.21,.11,.32,.32,.32h12.92c.32,0,.53,.21,.53,.53v5.61c0,.32-.21,.53-.53,.53h-12.92c-.21,0-.32,.11-.32,.32v7.46c0,.21,.11,.32,.32,.32h15.51c.32,0,.53,.21,.53,.53v5.66c0,.32-.21,.53-.53,.53h-23.08c-.32,0-.53-.21-.53-.53V1.11Z"/><path class="cls-1" d="M207.61,36.58c-.37,0-.58-.21-.69-.53l-6.25-22.39h-.11l-6.3,22.39c-.11,.32-.32,.53-.69,.53h-5.29c-.32,0-.53-.21-.64-.53L178.34,1.11c-.05-.32,.05-.53,.42-.53h6.83c.37,0,.58,.21,.64,.53l5.19,22.6h.11l6.14-22.6c.11-.32,.32-.53,.69-.53h4.61c.32,0,.53,.21,.63,.53l6.35,22.6h.11l4.98-22.6c.05-.37,.26-.53,.64-.53h6.78c.37,0,.48,.21,.42,.53l-9.26,34.94c-.05,.32-.32,.53-.69,.53h-5.29Z"/><path class="cls-1" d="M224.49,32.24c-.21-.21-.32-.58-.05-.9l4.02-4.61c.21-.26,.53-.26,.79-.05,2.38,1.91,5.61,3.71,9.42,3.71s5.88-1.75,5.88-4.29c0-2.12-1.27-3.44-5.56-4.02l-1.91-.26c-7.3-1.01-11.38-4.45-11.38-10.8s4.98-11.01,12.76-11.01c4.76,0,9.21,1.43,12.23,3.76,.32,.21,.37,.42,.11,.79l-3.23,4.82c-.21,.26-.48,.32-.74,.16-2.75-1.8-5.4-2.75-8.36-2.75-3.18,0-4.82,1.64-4.82,3.92,0,2.06,1.48,3.39,5.61,3.97l1.91,.26c7.41,1.01,11.33,4.39,11.33,10.9s-4.82,11.33-14.13,11.33c-5.61,0-11.06-2.22-13.87-4.92Z"/></svg>